<svg version="1.2" xmlns="http://www.w3.org/2000/svg" viewBox="0 0 64 64" width="50" height="50">
	<title>clock-svg-svg</title>
	<style>
		.s0 { fill: #fefefe } 
	</style>
	<filter id="f0">
		<feFlood flood-color="#000000" flood-opacity="1" />
		<feBlend mode="normal" in2="SourceGraphic"/>
		<feComposite in2="SourceAlpha" operator="in" />
	</filter>
	<g id="Layer" filter="url(#f0)">
		<path id="Layer" fill-rule="evenodd" class="s0" d="m54.6 9.4c6.1 6 9.4 14.1 9.4 22.6 0 8.5-3.3 16.6-9.4 22.6-6 6.1-14.1 9.4-22.6 9.4-8.5 0-16.6-3.3-22.6-9.4-6.1-6-9.4-14.1-9.4-22.6 0-8.5 3.3-16.6 9.4-22.6 6-6.1 14.1-9.4 22.6-9.4 8.5 0 16.6 3.3 22.6 9.4zm5.4 22.6c0-7.5-2.9-14.5-8.2-19.8-5.3-5.3-12.3-8.2-19.8-8.2-7.5 0-14.5 2.9-19.8 8.2-5.3 5.3-8.2 12.3-8.2 19.8 0 7.5 2.9 14.5 8.2 19.8 5.3 5.3 12.3 8.2 19.8 8.2 7.5 0 14.5-2.9 19.8-8.2 5.3-5.3 8.2-12.3 8.2-19.8z"/>
		<path id="Layer" class="s0" d="m46.8 36.2l-12.8-5.5v-20.7c0-1.1-0.9-2-2-2-1.1 0-2 0.9-2 2v22c0 0.8 0.5 1.5 1.2 1.8l14 6q0.4 0.2 0.8 0.2c0.8 0 1.5-0.5 1.8-1.2 0.5-1 0-2.2-1-2.6z"/>
		<path id="Layer" class="s0" d="m12 30h-2c-1.1 0-2 0.9-2 2 0 1.1 0.9 2 2 2h2c1.1 0 2-0.9 2-2 0-1.1-0.9-2-2-2z"/>
		<path id="Layer" class="s0" d="m50 32c0 1.1 0.9 2 2 2h2c1.1 0 2-0.9 2-2 0-1.1-0.9-2-2-2h-2c-1.1 0-2 0.9-2 2z"/>
		<path id="Layer" class="s0" d="m32 50c-1.1 0-2 0.9-2 2v2c0 1.1 0.9 2 2 2 1.1 0 2-0.9 2-2v-2c0-1.1-0.9-2-2-2z"/>
	</g>
</svg>