<?xml version="1.0" standalone="no"?>
<!DOCTYPE svg PUBLIC "-//W3C//DTD SVG 20010904//EN"
 "http://www.w3.org/TR/2001/REC-SVG-20010904/DTD/svg10.dtd">
<svg version="1.0" xmlns="http://www.w3.org/2000/svg"
 width="600.000000pt" height="75.000000pt" viewBox="0 0 600.000000 75.000000"
 preserveAspectRatio="xMidYMid meet">

<g transform="translate(0.000000,75.000000) scale(0.100000,-0.100000)"
fill="#fd0e0e" stroke="none">
<path d="M109 727 c-78 -41 -87 -70 -95 -302 -8 -240 -2 -271 61 -332 64 -61
95 -65 451 -61 l301 3 48 30 c80 50 94 89 95 266 l0 147 -192 7 c-106 3 -238
5 -293 3 l-100 -3 0 -95 0 -95 148 -3 147 -3 0 -29 0 -30 -187 2 -188 3 -3
135 c-1 74 0 145 3 158 l5 22 309 0 310 0 3 93 c2 50 2 95 0 100 -2 4 -178 7
-391 7 -386 0 -388 0 -432 -23z"/>
<path d="M1273 739 c-58 -17 -103 -50 -131 -98 l-27 -46 -3 -281 -4 -282 124
-7 c68 -4 133 -6 144 -3 18 3 19 16 25 233 4 127 7 245 8 263 l1 32 218 -2
217 -3 0 -30 0 -30 -182 -3 -183 -2 0 -95 0 -95 183 -2 182 -3 3 -132 3 -133
144 0 145 0 0 358 0 359 -212 6 c-289 9 -616 7 -655 -4z"/>
<path d="M2288 723 c-2 -10 -4 -54 -4 -98 l1 -80 333 -3 332 -2 0 -160 0 -160
-187 2 -188 3 -2 125 -1 125 -144 0 -143 0 -3 -227 -2 -228 397 0 398 0 52 24
c36 17 60 38 80 67 l28 42 3 211 c4 227 -2 265 -44 315 -47 57 -83 61 -515 61
-360 0 -387 -1 -391 -17z"/>
<path d="M3688 478 l-3 -253 -147 -3 -148 -3 0 -99 0 -99 34 -7 c19 -3 115 -4
213 -2 168 3 181 4 228 29 30 15 62 42 80 68 l30 43 3 289 3 289 -145 0 -146
0 -2 -252z"/>
<path d="M4130 636 l0 -93 31 -7 c17 -3 218 -6 445 -6 l414 0 0 100 0 100
-445 0 -445 0 0 -94z"/>
<path d="M5127 638 c-3 -50 -4 -95 -1 -100 3 -4 201 -8 440 -8 l434 0 0 93 0
94 -217 6 c-120 4 -315 7 -434 7 l-216 0 -6 -92z"/>
<path d="M4125 348 c-3 -68 -5 -170 -3 -228 l3 -105 448 -3 448 -2 -3 97 -3
98 -300 5 -300 5 0 25 0 25 190 5 190 5 0 95 0 95 -331 3 -332 2 -7 -122z"/>
<path d="M5422 233 l3 -228 143 -3 142 -3 0 231 0 230 -145 0 -145 0 2 -227z"/>
</g>
</svg>
